<svg width="535" height="445" viewBox="0 0 535 445" fill="none" xmlns="http://www.w3.org/2000/svg">
<path opacity="0.5" d="M223.909 0.366394L308.854 38.6675C310.86 39.609 312.264 41.8058 312.264 43.8457C312.264 45.8857 310.659 46.8272 308.854 45.8857L223.909 7.58458C221.903 6.64308 220.499 4.44624 220.499 2.40632C220.499 0.366393 221.903 -0.575108 223.909 0.366394Z" fill="white"/>
<path d="M223.909 13.0851L278.69 37.9453C280.696 38.8868 282.1 41.0837 282.1 43.1236C282.1 45.1635 280.496 46.105 278.69 45.1635L223.909 20.3033C221.903 19.3618 220.499 17.165 220.499 15.1251C220.499 13.0851 221.903 12.1436 223.909 13.0851Z" fill="white" fill-opacity="0.5"/>
<rect x="476.348" y="428.398" width="448.718" height="343.316" rx="16" transform="rotate(-180 476.348 428.398)" fill="#651B59" fill-opacity="0.05"/>
<path fill-rule="evenodd" clip-rule="evenodd" d="M452.934 417.396C459.497 417.396 464.818 412.076 464.818 405.512L464.818 85.9642C464.818 79.4008 459.497 74.0801 452.934 74.0801L27.984 74.0801C21.4206 74.0801 16.0999 79.4008 16.0999 85.9642L16.0999 405.512C16.0999 412.076 21.4206 417.396 27.984 417.396L452.934 417.396Z" fill="white"/>
<path d="M464.818 405.512H463.818H464.818ZM452.934 417.396V418.396V417.396ZM464.818 85.9642H465.818H464.818ZM452.934 74.0801V73.0801V74.0801ZM27.984 74.0801V75.0801V74.0801ZM16.0999 85.9642H17.0999H16.0999ZM16.0999 405.512H15.0999H16.0999ZM27.984 417.396V416.396V417.396ZM463.818 405.512C463.818 411.523 458.945 416.396 452.934 416.396V418.396C460.05 418.396 465.818 412.628 465.818 405.512H463.818ZM463.818 85.9642L463.818 405.512H465.818L465.818 85.9642H463.818ZM452.934 75.0801C458.945 75.0801 463.818 79.9531 463.818 85.9642H465.818C465.818 78.8485 460.05 73.0801 452.934 73.0801V75.0801ZM27.984 75.0801L452.934 75.0801V73.0801L27.984 73.0801V75.0801ZM17.0999 85.9642C17.0999 79.953 21.9729 75.0801 27.984 75.0801V73.0801C20.8683 73.0801 15.0999 78.8485 15.0999 85.9642H17.0999ZM17.0999 405.512L17.0999 85.9642H15.0999L15.0999 405.512H17.0999ZM27.984 416.396C21.9728 416.396 17.0999 411.523 17.0999 405.512H15.0999C15.0999 412.628 20.8683 418.396 27.984 418.396V416.396ZM452.934 416.396L27.984 416.396V418.396L452.934 418.396V416.396Z" fill="#651B59"/>
<path d="M464.818 405.512C464.818 412.076 459.497 417.396 452.934 417.396L27.9839 417.396C21.4205 417.396 16.0998 412.076 16.0998 405.512L16.0998 114.959L464.818 114.959L464.818 405.512Z" fill="#FAE9E5" fill-opacity="0.3" stroke="#651B59" stroke-width="2" stroke-linejoin="round"/>
<path d="M16 114.959H464.603" stroke="#651B59" stroke-width="2"/>
<path opacity="0.5" d="M510.418 188.472C510.418 189.275 511.133 190.248 512.035 190.661L533.022 200.147C533.923 200.56 534.638 200.22 534.638 199.417V180.567C534.638 179.765 533.923 178.792 533.022 178.378L512.035 168.893C511.164 168.503 510.418 168.82 510.418 169.622V188.472Z" fill="white"/>
<path opacity="0.5" d="M510.418 227.548C510.418 228.351 511.133 229.324 512.035 229.737L533.022 239.223C533.923 239.636 534.638 239.296 534.638 238.493V219.643C534.638 218.841 533.923 217.868 533.022 217.454L512.035 207.969C511.164 207.58 510.418 207.896 510.418 208.698V227.548Z" fill="white"/>
<path opacity="0.5" d="M510.418 266.628C510.418 267.431 511.133 268.404 512.035 268.817L533.022 278.303C533.923 278.716 534.638 278.376 534.638 277.573V258.723C534.638 257.921 533.923 256.948 533.022 256.534L512.035 247.049C511.164 246.66 510.418 246.976 510.418 247.778V266.628Z" fill="white"/>
<path opacity="0.5" d="M510.418 305.708C510.418 306.511 511.133 307.484 512.035 307.897L533.022 317.383C533.923 317.797 534.638 317.456 534.638 316.653V297.804C534.638 297.001 533.923 296.028 533.022 295.615L512.035 286.129C511.164 285.74 510.418 286.056 510.418 286.859V305.708Z" fill="white"/>
<circle cx="41.8506" cy="95.7024" r="4.1262" fill="#651B59"/>
<circle cx="55.6045" cy="95.7024" r="4.1262" fill="#651B59"/>
<circle cx="69.3586" cy="95.7024" r="4.1262" fill="#651B59"/>
<path fill-rule="evenodd" clip-rule="evenodd" d="M243 144.707H47.3523V386.728H435.375V239H243V144.707Z" fill="#FAE9E5"/>
<path d="M47.3523 144.707V143.707C46.8 143.707 46.3523 144.155 46.3523 144.707H47.3523ZM243 144.707H244C244 144.155 243.552 143.707 243 143.707V144.707ZM47.3523 386.728H46.3523C46.3523 387.28 46.8 387.728 47.3523 387.728V386.728ZM435.375 386.728V387.728C435.927 387.728 436.375 387.28 436.375 386.728H435.375ZM435.375 239H436.375C436.375 238.448 435.927 238 435.375 238V239ZM243 239H242C242 239.552 242.448 240 243 240V239ZM46.3523 146.77C46.3523 147.322 46.8 147.77 47.3523 147.77C47.9046 147.77 48.3523 147.322 48.3523 146.77H46.3523ZM48.3523 153.645C48.3523 153.093 47.9046 152.645 47.3523 152.645C46.8 152.645 46.3523 153.093 46.3523 153.645H48.3523ZM46.3523 157.771C46.3523 158.323 46.8 158.771 47.3523 158.771C47.9046 158.771 48.3523 158.323 48.3523 157.771H46.3523ZM48.3523 164.646C48.3523 164.094 47.9046 163.646 47.3523 163.646C46.8 163.646 46.3523 164.094 46.3523 164.646H48.3523ZM46.3523 168.772C46.3523 169.324 46.8 169.772 47.3523 169.772C47.9046 169.772 48.3523 169.324 48.3523 168.772H46.3523ZM48.3523 175.647C48.3523 175.095 47.9046 174.647 47.3523 174.647C46.8 174.647 46.3523 175.095 46.3523 175.647H48.3523ZM46.3523 179.773C46.3523 180.325 46.8 180.773 47.3523 180.773C47.9046 180.773 48.3523 180.325 48.3523 179.773H46.3523ZM48.3523 186.648C48.3523 186.096 47.9046 185.648 47.3523 185.648C46.8 185.648 46.3523 186.096 46.3523 186.648H48.3523ZM46.3523 190.773C46.3523 191.326 46.8 191.773 47.3523 191.773C47.9046 191.773 48.3523 191.326 48.3523 190.773H46.3523ZM48.3523 197.649C48.3523 197.097 47.9046 196.649 47.3523 196.649C46.8 196.649 46.3523 197.097 46.3523 197.649H48.3523ZM46.3523 201.774C46.3523 202.327 46.8 202.774 47.3523 202.774C47.9046 202.774 48.3523 202.327 48.3523 201.774H46.3523ZM48.3523 208.65C48.3523 208.098 47.9046 207.65 47.3523 207.65C46.8 207.65 46.3523 208.098 46.3523 208.65H48.3523ZM46.3523 212.775C46.3523 213.328 46.8 213.775 47.3523 213.775C47.9046 213.775 48.3523 213.328 48.3523 212.775H46.3523ZM48.3523 219.651C48.3523 219.099 47.9046 218.651 47.3523 218.651C46.8 218.651 46.3523 219.099 46.3523 219.651H48.3523ZM46.3523 223.776C46.3523 224.329 46.8 224.776 47.3523 224.776C47.9046 224.776 48.3523 224.329 48.3523 223.776H46.3523ZM48.3523 230.652C48.3523 230.1 47.9046 229.652 47.3523 229.652C46.8 229.652 46.3523 230.1 46.3523 230.652H48.3523ZM46.3523 234.777C46.3523 235.329 46.8 235.777 47.3523 235.777C47.9046 235.777 48.3523 235.329 48.3523 234.777H46.3523ZM48.3523 241.653C48.3523 241.1 47.9046 240.653 47.3523 240.653C46.8 240.653 46.3523 241.1 46.3523 241.653H48.3523ZM46.3523 245.778C46.3523 246.33 46.8 246.778 47.3523 246.778C47.9046 246.778 48.3523 246.33 48.3523 245.778H46.3523ZM48.3523 252.654C48.3523 252.101 47.9046 251.654 47.3523 251.654C46.8 251.654 46.3523 252.101 46.3523 252.654H48.3523ZM46.3523 256.779C46.3523 257.331 46.8 257.779 47.3523 257.779C47.9046 257.779 48.3523 257.331 48.3523 256.779H46.3523ZM48.3523 263.655C48.3523 263.102 47.9046 262.655 47.3523 262.655C46.8 262.655 46.3523 263.102 46.3523 263.655H48.3523ZM46.3523 267.78C46.3523 268.332 46.8 268.78 47.3523 268.78C47.9046 268.78 48.3523 268.332 48.3523 267.78H46.3523ZM48.3523 274.656C48.3523 274.103 47.9046 273.656 47.3523 273.656C46.8 273.656 46.3523 274.103 46.3523 274.656H48.3523ZM46.3523 278.781C46.3523 279.333 46.8 279.781 47.3523 279.781C47.9046 279.781 48.3523 279.333 48.3523 278.781H46.3523ZM48.3523 285.657C48.3523 285.104 47.9046 284.657 47.3523 284.657C46.8 284.657 46.3523 285.104 46.3523 285.657H48.3523ZM46.3523 289.782C46.3523 290.334 46.8 290.782 47.3523 290.782C47.9046 290.782 48.3523 290.334 48.3523 289.782H46.3523ZM48.3523 296.657C48.3523 296.105 47.9046 295.657 47.3523 295.657C46.8 295.657 46.3523 296.105 46.3523 296.657H48.3523ZM46.3523 300.783C46.3523 301.335 46.8 301.783 47.3523 301.783C47.9046 301.783 48.3523 301.335 48.3523 300.783H46.3523ZM48.3523 307.658C48.3523 307.106 47.9046 306.658 47.3523 306.658C46.8 306.658 46.3523 307.106 46.3523 307.658H48.3523ZM46.3523 311.784C46.3523 312.336 46.8 312.784 47.3523 312.784C47.9046 312.784 48.3523 312.336 48.3523 311.784H46.3523ZM48.3523 318.659C48.3523 318.107 47.9046 317.659 47.3523 317.659C46.8 317.659 46.3523 318.107 46.3523 318.659H48.3523ZM46.3523 322.785C46.3523 323.337 46.8 323.785 47.3523 323.785C47.9046 323.785 48.3523 323.337 48.3523 322.785H46.3523ZM48.3523 329.66C48.3523 329.108 47.9046 328.66 47.3523 328.66C46.8 328.66 46.3523 329.108 46.3523 329.66H48.3523ZM46.3523 333.786C46.3523 334.338 46.8 334.786 47.3523 334.786C47.9046 334.786 48.3523 334.338 48.3523 333.786H46.3523ZM48.3523 340.661C48.3523 340.109 47.9046 339.661 47.3523 339.661C46.8 339.661 46.3523 340.109 46.3523 340.661H48.3523ZM46.3523 344.787C46.3523 345.339 46.8 345.787 47.3523 345.787C47.9046 345.787 48.3523 345.339 48.3523 344.787H46.3523ZM48.3523 351.662C48.3523 351.11 47.9046 350.662 47.3523 350.662C46.8 350.662 46.3523 351.11 46.3523 351.662H48.3523ZM46.3523 355.787C46.3523 356.34 46.8 356.787 47.3523 356.787C47.9046 356.787 48.3523 356.34 48.3523 355.787H46.3523ZM48.3523 362.663C48.3523 362.111 47.9046 361.663 47.3523 361.663C46.8 361.663 46.3523 362.111 46.3523 362.663H48.3523ZM46.3523 366.788C46.3523 367.341 46.8 367.788 47.3523 367.788C47.9046 367.788 48.3523 367.341 48.3523 366.788H46.3523ZM48.3523 373.664C48.3523 373.112 47.9046 372.664 47.3523 372.664C46.8 372.664 46.3523 373.112 46.3523 373.664H48.3523ZM46.3523 377.789C46.3523 378.342 46.8 378.789 47.3523 378.789C47.9046 378.789 48.3523 378.342 48.3523 377.789H46.3523ZM48.3523 384.665C48.3523 384.113 47.9046 383.665 47.3523 383.665C46.8 383.665 46.3523 384.113 46.3523 384.665H48.3523ZM49.431 387.728C49.9833 387.728 50.431 387.28 50.431 386.728C50.431 386.175 49.9833 385.728 49.431 385.728V387.728ZM56.36 385.728C55.8077 385.728 55.36 386.175 55.36 386.728C55.36 387.28 55.8077 387.728 56.36 387.728V385.728ZM60.5173 387.728C61.0696 387.728 61.5173 387.28 61.5173 386.728C61.5173 386.175 61.0696 385.728 60.5173 385.728V387.728ZM67.4463 385.728C66.894 385.728 66.4463 386.175 66.4463 386.728C66.4463 387.28 66.894 387.728 67.4463 387.728V385.728ZM71.6037 387.728C72.156 387.728 72.6037 387.28 72.6037 386.728C72.6037 386.175 72.156 385.728 71.6037 385.728V387.728ZM78.5327 385.728C77.9804 385.728 77.5327 386.175 77.5327 386.728C77.5327 387.28 77.9804 387.728 78.5327 387.728V385.728ZM82.6901 387.728C83.2423 387.728 83.6901 387.28 83.6901 386.728C83.6901 386.175 83.2423 385.728 82.6901 385.728V387.728ZM89.619 385.728C89.0667 385.728 88.619 386.175 88.619 386.728C88.619 387.28 89.0667 387.728 89.619 387.728V385.728ZM93.7764 387.728C94.3287 387.728 94.7764 387.28 94.7764 386.728C94.7764 386.175 94.3287 385.728 93.7764 385.728V387.728ZM100.705 385.728C100.153 385.728 99.7054 386.175 99.7054 386.728C99.7054 387.28 100.153 387.728 100.705 387.728V385.728ZM104.863 387.728C105.415 387.728 105.863 387.28 105.863 386.728C105.863 386.175 105.415 385.728 104.863 385.728V387.728ZM111.792 385.728C111.239 385.728 110.792 386.175 110.792 386.728C110.792 387.28 111.239 387.728 111.792 387.728V385.728ZM115.949 387.728C116.501 387.728 116.949 387.28 116.949 386.728C116.949 386.175 116.501 385.728 115.949 385.728V387.728ZM122.878 385.728C122.326 385.728 121.878 386.175 121.878 386.728C121.878 387.28 122.326 387.728 122.878 387.728V385.728ZM127.035 387.728C127.588 387.728 128.035 387.28 128.035 386.728C128.035 386.175 127.588 385.728 127.035 385.728V387.728ZM133.964 385.728C133.412 385.728 132.964 386.175 132.964 386.728C132.964 387.28 133.412 387.728 133.964 387.728V385.728ZM138.122 387.728C138.674 387.728 139.122 387.28 139.122 386.728C139.122 386.175 138.674 385.728 138.122 385.728V387.728ZM145.051 385.728C144.499 385.728 144.051 386.175 144.051 386.728C144.051 387.28 144.499 387.728 145.051 387.728V385.728ZM149.208 387.728C149.76 387.728 150.208 387.28 150.208 386.728C150.208 386.175 149.76 385.728 149.208 385.728V387.728ZM156.137 385.728C155.585 385.728 155.137 386.175 155.137 386.728C155.137 387.28 155.585 387.728 156.137 387.728V385.728ZM160.295 387.728C160.847 387.728 161.295 387.28 161.295 386.728C161.295 386.175 160.847 385.728 160.295 385.728V387.728ZM167.224 385.728C166.671 385.728 166.224 386.175 166.224 386.728C166.224 387.28 166.671 387.728 167.224 387.728V385.728ZM171.381 387.728C171.933 387.728 172.381 387.28 172.381 386.728C172.381 386.175 171.933 385.728 171.381 385.728V387.728ZM178.31 385.728C177.758 385.728 177.31 386.175 177.31 386.728C177.31 387.28 177.758 387.728 178.31 387.728V385.728ZM182.467 387.728C183.02 387.728 183.467 387.28 183.467 386.728C183.467 386.175 183.02 385.728 182.467 385.728V387.728ZM189.396 385.728C188.844 385.728 188.396 386.175 188.396 386.728C188.396 387.28 188.844 387.728 189.396 387.728V385.728ZM193.554 387.728C194.106 387.728 194.554 387.28 194.554 386.728C194.554 386.175 194.106 385.728 193.554 385.728V387.728ZM200.483 385.728C199.93 385.728 199.483 386.175 199.483 386.728C199.483 387.28 199.93 387.728 200.483 387.728V385.728ZM204.64 387.728C205.192 387.728 205.64 387.28 205.64 386.728C205.64 386.175 205.192 385.728 204.64 385.728V387.728ZM211.569 385.728C211.017 385.728 210.569 386.175 210.569 386.728C210.569 387.28 211.017 387.728 211.569 387.728V385.728ZM215.726 387.728C216.279 387.728 216.726 387.28 216.726 386.728C216.726 386.175 216.279 385.728 215.726 385.728V387.728ZM222.655 385.728C222.103 385.728 221.655 386.175 221.655 386.728C221.655 387.28 222.103 387.728 222.655 387.728V385.728ZM226.813 387.728C227.365 387.728 227.813 387.28 227.813 386.728C227.813 386.175 227.365 385.728 226.813 385.728V387.728ZM233.742 385.728C233.189 385.728 232.742 386.175 232.742 386.728C232.742 387.28 233.189 387.728 233.742 387.728V385.728ZM237.899 387.728C238.451 387.728 238.899 387.28 238.899 386.728C238.899 386.175 238.451 385.728 237.899 385.728V387.728ZM244.828 385.728C244.276 385.728 243.828 386.175 243.828 386.728C243.828 387.28 244.276 387.728 244.828 387.728V385.728ZM248.985 387.728C249.538 387.728 249.985 387.28 249.985 386.728C249.985 386.175 249.538 385.728 248.985 385.728V387.728ZM255.914 385.728C255.362 385.728 254.914 386.175 254.914 386.728C254.914 387.28 255.362 387.728 255.914 387.728V385.728ZM260.072 387.728C260.624 387.728 261.072 387.28 261.072 386.728C261.072 386.175 260.624 385.728 260.072 385.728V387.728ZM267.001 385.728C266.448 385.728 266.001 386.175 266.001 386.728C266.001 387.28 266.448 387.728 267.001 387.728V385.728ZM271.158 387.728C271.71 387.728 272.158 387.28 272.158 386.728C272.158 386.175 271.71 385.728 271.158 385.728V387.728ZM278.087 385.728C277.535 385.728 277.087 386.175 277.087 386.728C277.087 387.28 277.535 387.728 278.087 387.728V385.728ZM282.244 387.728C282.797 387.728 283.244 387.28 283.244 386.728C283.244 386.175 282.797 385.728 282.244 385.728V387.728ZM289.173 385.728C288.621 385.728 288.173 386.175 288.173 386.728C288.173 387.28 288.621 387.728 289.173 387.728V385.728ZM293.331 387.728C293.883 387.728 294.331 387.28 294.331 386.728C294.331 386.175 293.883 385.728 293.331 385.728V387.728ZM300.26 385.728C299.707 385.728 299.26 386.175 299.26 386.728C299.26 387.28 299.707 387.728 300.26 387.728V385.728ZM304.417 387.728C304.969 387.728 305.417 387.28 305.417 386.728C305.417 386.175 304.969 385.728 304.417 385.728V387.728ZM311.346 385.728C310.794 385.728 310.346 386.175 310.346 386.728C310.346 387.28 310.794 387.728 311.346 387.728V385.728ZM315.503 387.728C316.056 387.728 316.503 387.28 316.503 386.728C316.503 386.175 316.056 385.728 315.503 385.728V387.728ZM322.432 385.728C321.88 385.728 321.432 386.175 321.432 386.728C321.432 387.28 321.88 387.728 322.432 387.728V385.728ZM326.59 387.728C327.142 387.728 327.59 387.28 327.59 386.728C327.59 386.175 327.142 385.728 326.59 385.728V387.728ZM333.519 385.728C332.967 385.728 332.519 386.175 332.519 386.728C332.519 387.28 332.967 387.728 333.519 387.728V385.728ZM337.676 387.728C338.228 387.728 338.676 387.28 338.676 386.728C338.676 386.175 338.228 385.728 337.676 385.728V387.728ZM344.605 385.728C344.053 385.728 343.605 386.175 343.605 386.728C343.605 387.28 344.053 387.728 344.605 387.728V385.728ZM348.763 387.728C349.315 387.728 349.763 387.28 349.763 386.728C349.763 386.175 349.315 385.728 348.763 385.728V387.728ZM355.692 385.728C355.139 385.728 354.692 386.175 354.692 386.728C354.692 387.28 355.139 387.728 355.692 387.728V385.728ZM359.849 387.728C360.401 387.728 360.849 387.28 360.849 386.728C360.849 386.175 360.401 385.728 359.849 385.728V387.728ZM366.778 385.728C366.226 385.728 365.778 386.175 365.778 386.728C365.778 387.28 366.226 387.728 366.778 387.728V385.728ZM370.935 387.728C371.488 387.728 371.935 387.28 371.935 386.728C371.935 386.175 371.488 385.728 370.935 385.728V387.728ZM377.864 385.728C377.312 385.728 376.864 386.175 376.864 386.728C376.864 387.28 377.312 387.728 377.864 387.728V385.728ZM382.022 387.728C382.574 387.728 383.022 387.28 383.022 386.728C383.022 386.175 382.574 385.728 382.022 385.728V387.728ZM388.951 385.728C388.398 385.728 387.951 386.175 387.951 386.728C387.951 387.28 388.398 387.728 388.951 387.728V385.728ZM393.108 387.728C393.66 387.728 394.108 387.28 394.108 386.728C394.108 386.175 393.66 385.728 393.108 385.728V387.728ZM400.037 385.728C399.485 385.728 399.037 386.175 399.037 386.728C399.037 387.28 399.485 387.728 400.037 387.728V385.728ZM404.194 387.728C404.747 387.728 405.194 387.28 405.194 386.728C405.194 386.175 404.747 385.728 404.194 385.728V387.728ZM411.123 385.728C410.571 385.728 410.123 386.175 410.123 386.728C410.123 387.28 410.571 387.728 411.123 387.728V385.728ZM415.281 387.728C415.833 387.728 416.281 387.28 416.281 386.728C416.281 386.175 415.833 385.728 415.281 385.728V387.728ZM422.21 385.728C421.657 385.728 421.21 386.175 421.21 386.728C421.21 387.28 421.657 387.728 422.21 387.728V385.728ZM426.367 387.728C426.919 387.728 427.367 387.28 427.367 386.728C427.367 386.175 426.919 385.728 426.367 385.728V387.728ZM433.296 385.728C432.744 385.728 432.296 386.175 432.296 386.728C432.296 387.28 432.744 387.728 433.296 387.728V385.728ZM436.375 384.597C436.375 384.045 435.927 383.597 435.375 383.597C434.822 383.597 434.375 384.045 434.375 384.597H436.375ZM434.375 377.495C434.375 378.047 434.822 378.495 435.375 378.495C435.927 378.495 436.375 378.047 436.375 377.495H434.375ZM436.375 373.233C436.375 372.681 435.927 372.233 435.375 372.233C434.822 372.233 434.375 372.681 434.375 373.233H436.375ZM434.375 366.131C434.375 366.683 434.822 367.131 435.375 367.131C435.927 367.131 436.375 366.683 436.375 366.131H434.375ZM436.375 361.87C436.375 361.317 435.927 360.87 435.375 360.87C434.822 360.87 434.375 361.317 434.375 361.87H436.375ZM434.375 354.767C434.375 355.32 434.822 355.767 435.375 355.767C435.927 355.767 436.375 355.32 436.375 354.767H434.375ZM436.375 350.506C436.375 349.954 435.927 349.506 435.375 349.506C434.822 349.506 434.375 349.954 434.375 350.506H436.375ZM434.375 343.404C434.375 343.956 434.822 344.404 435.375 344.404C435.927 344.404 436.375 343.956 436.375 343.404H434.375ZM436.375 339.142C436.375 338.59 435.927 338.142 435.375 338.142C434.822 338.142 434.375 338.59 434.375 339.142H436.375ZM434.375 332.04C434.375 332.592 434.822 333.04 435.375 333.04C435.927 333.04 436.375 332.592 436.375 332.04H434.375ZM436.375 327.779C436.375 327.226 435.927 326.779 435.375 326.779C434.822 326.779 434.375 327.226 434.375 327.779H436.375ZM434.375 320.676C434.375 321.229 434.822 321.676 435.375 321.676C435.927 321.676 436.375 321.229 436.375 320.676H434.375ZM436.375 316.415C436.375 315.863 435.927 315.415 435.375 315.415C434.822 315.415 434.375 315.863 434.375 316.415H436.375ZM434.375 309.313C434.375 309.865 434.822 310.313 435.375 310.313C435.927 310.313 436.375 309.865 436.375 309.313H434.375ZM436.375 305.051C436.375 304.499 435.927 304.051 435.375 304.051C434.822 304.051 434.375 304.499 434.375 305.051H436.375ZM434.375 297.949C434.375 298.501 434.822 298.949 435.375 298.949C435.927 298.949 436.375 298.501 436.375 297.949H434.375ZM436.375 293.688C436.375 293.135 435.927 292.688 435.375 292.688C434.822 292.688 434.375 293.135 434.375 293.688H436.375ZM434.375 286.585C434.375 287.138 434.822 287.585 435.375 287.585C435.927 287.585 436.375 287.138 436.375 286.585H434.375ZM436.375 282.324C436.375 281.772 435.927 281.324 435.375 281.324C434.822 281.324 434.375 281.772 434.375 282.324H436.375ZM434.375 275.222C434.375 275.774 434.822 276.222 435.375 276.222C435.927 276.222 436.375 275.774 436.375 275.222H434.375ZM436.375 270.96C436.375 270.408 435.927 269.96 435.375 269.96C434.822 269.96 434.375 270.408 434.375 270.96H436.375ZM434.375 263.858C434.375 264.41 434.822 264.858 435.375 264.858C435.927 264.858 436.375 264.41 436.375 263.858H434.375ZM436.375 259.597C436.375 259.044 435.927 258.597 435.375 258.597C434.822 258.597 434.375 259.044 434.375 259.597H436.375ZM434.375 252.494C434.375 253.047 434.822 253.494 435.375 253.494C435.927 253.494 436.375 253.047 436.375 252.494H434.375ZM436.375 248.233C436.375 247.681 435.927 247.233 435.375 247.233C434.822 247.233 434.375 247.681 434.375 248.233H436.375ZM434.375 241.131C434.375 241.683 434.822 242.131 435.375 242.131C435.927 242.131 436.375 241.683 436.375 241.131H434.375ZM433.253 238C432.701 238 432.253 238.448 432.253 239C432.253 239.552 432.701 240 433.253 240V238ZM426.18 240C426.733 240 427.18 239.552 427.18 239C427.18 238.448 426.733 238 426.18 238V240ZM421.937 238C421.385 238 420.937 238.448 420.937 239C420.937 239.552 421.385 240 421.937 240V238ZM414.864 240C415.417 240 415.864 239.552 415.864 239C415.864 238.448 415.417 238 414.864 238V240ZM410.621 238C410.068 238 409.621 238.448 409.621 239C409.621 239.552 410.068 240 410.621 240V238ZM403.548 240C404.1 240 404.548 239.552 404.548 239C404.548 238.448 404.1 238 403.548 238V240ZM399.305 238C398.752 238 398.305 238.448 398.305 239C398.305 239.552 398.752 240 399.305 240V238ZM392.232 240C392.784 240 393.232 239.552 393.232 239C393.232 238.448 392.784 238 392.232 238V240ZM387.988 238C387.436 238 386.988 238.448 386.988 239C386.988 239.552 387.436 240 387.988 240V238ZM380.916 240C381.468 240 381.916 239.552 381.916 239C381.916 238.448 381.468 238 380.916 238V240ZM376.672 238C376.12 238 375.672 238.448 375.672 239C375.672 239.552 376.12 240 376.672 240V238ZM369.6 240C370.152 240 370.6 239.552 370.6 239C370.6 238.448 370.152 238 369.6 238V240ZM365.356 238C364.804 238 364.356 238.448 364.356 239C364.356 239.552 364.804 240 365.356 240V238ZM358.283 240C358.836 240 359.283 239.552 359.283 239C359.283 238.448 358.836 238 358.283 238V240ZM354.04 238C353.488 238 353.04 238.448 353.04 239C353.04 239.552 353.488 240 354.04 240V238ZM346.967 240C347.52 240 347.967 239.552 347.967 239C347.967 238.448 347.52 238 346.967 238V240ZM342.724 238C342.171 238 341.724 238.448 341.724 239C341.724 239.552 342.171 240 342.724 240V238ZM335.651 240C336.203 240 336.651 239.552 336.651 239C336.651 238.448 336.203 238 335.651 238V240ZM331.408 238C330.855 238 330.408 238.448 330.408 239C330.408 239.552 330.855 240 331.408 240V238ZM324.335 240C324.887 240 325.335 239.552 325.335 239C325.335 238.448 324.887 238 324.335 238V240ZM320.091 238C319.539 238 319.091 238.448 319.091 239C319.091 239.552 319.539 240 320.091 240V238ZM313.019 240C313.571 240 314.019 239.552 314.019 239C314.019 238.448 313.571 238 313.019 238V240ZM308.775 238C308.223 238 307.775 238.448 307.775 239C307.775 239.552 308.223 240 308.775 240V238ZM301.703 240C302.255 240 302.703 239.552 302.703 239C302.703 238.448 302.255 238 301.703 238V240ZM297.459 238C296.907 238 296.459 238.448 296.459 239C296.459 239.552 296.907 240 297.459 240V238ZM290.386 240C290.939 240 291.386 239.552 291.386 239C291.386 238.448 290.939 238 290.386 238V240ZM286.143 238C285.591 238 285.143 238.448 285.143 239C285.143 239.552 285.591 240 286.143 240V238ZM279.07 240C279.623 240 280.07 239.552 280.07 239C280.07 238.448 279.623 238 279.07 238V240ZM274.827 238C274.274 238 273.827 238.448 273.827 239C273.827 239.552 274.274 240 274.827 240V238ZM267.754 240C268.306 240 268.754 239.552 268.754 239C268.754 238.448 268.306 238 267.754 238V240ZM263.511 238C262.958 238 262.511 238.448 262.511 239C262.511 239.552 262.958 240 263.511 240V238ZM256.438 240C256.99 240 257.438 239.552 257.438 239C257.438 238.448 256.99 238 256.438 238V240ZM252.194 238C251.642 238 251.194 238.448 251.194 239C251.194 239.552 251.642 240 252.194 240V238ZM245.122 240C245.674 240 246.122 239.552 246.122 239C246.122 238.448 245.674 238 245.122 238V240ZM244 237.036C244 236.483 243.552 236.036 243 236.036C242.448 236.036 242 236.483 242 237.036H244ZM242 230.487C242 231.04 242.448 231.487 243 231.487C243.552 231.487 244 231.04 244 230.487H242ZM244 226.559C244 226.006 243.552 225.559 243 225.559C242.448 225.559 242 226.006 242 226.559H244ZM242 220.01C242 220.563 242.448 221.01 243 221.01C243.552 221.01 244 220.563 244 220.01H242ZM244 216.082C244 215.529 243.552 215.082 243 215.082C242.448 215.082 242 215.529 242 216.082H244ZM242 209.533C242 210.086 242.448 210.533 243 210.533C243.552 210.533 244 210.086 244 209.533H242ZM244 205.605C244 205.052 243.552 204.605 243 204.605C242.448 204.605 242 205.052 242 205.605H244ZM242 199.056C242 199.609 242.448 200.056 243 200.056C243.552 200.056 244 199.609 244 199.056H242ZM244 195.128C244 194.575 243.552 194.128 243 194.128C242.448 194.128 242 194.575 242 195.128H244ZM242 188.579C242 189.132 242.448 189.579 243 189.579C243.552 189.579 244 189.132 244 188.579H242ZM244 184.651C244 184.098 243.552 183.651 243 183.651C242.448 183.651 242 184.098 242 184.651H244ZM242 178.102C242 178.655 242.448 179.102 243 179.102C243.552 179.102 244 178.655 244 178.102H242ZM244 174.174C244 173.621 243.552 173.174 243 173.174C242.448 173.174 242 173.621 242 174.174H244ZM242 167.625C242 168.178 242.448 168.625 243 168.625C243.552 168.625 244 168.178 244 167.625H242ZM244 163.697C244 163.144 243.552 162.697 243 162.697C242.448 162.697 242 163.144 242 163.697H244ZM242 157.148C242 157.701 242.448 158.148 243 158.148C243.552 158.148 244 157.701 244 157.148H242ZM244 153.22C244 152.667 243.552 152.22 243 152.22C242.448 152.22 242 152.667 242 153.22H244ZM242 146.671C242 147.224 242.448 147.671 243 147.671C243.552 147.671 244 147.224 244 146.671H242ZM240.962 143.707C240.41 143.707 239.962 144.155 239.962 144.707C239.962 145.259 240.41 145.707 240.962 145.707V143.707ZM234.169 145.707C234.721 145.707 235.169 145.259 235.169 144.707C235.169 144.155 234.721 143.707 234.169 143.707V145.707ZM230.093 143.707C229.54 143.707 229.093 144.155 229.093 144.707C229.093 145.259 229.54 145.707 230.093 145.707V143.707ZM223.299 145.707C223.852 145.707 224.299 145.259 224.299 144.707C224.299 144.155 223.852 143.707 223.299 143.707V145.707ZM219.223 143.707C218.671 143.707 218.223 144.155 218.223 144.707C218.223 145.259 218.671 145.707 219.223 145.707V143.707ZM212.43 145.707C212.982 145.707 213.43 145.259 213.43 144.707C213.43 144.155 212.982 143.707 212.43 143.707V145.707ZM208.354 143.707C207.802 143.707 207.354 144.155 207.354 144.707C207.354 145.259 207.802 145.707 208.354 145.707V143.707ZM201.561 145.707C202.113 145.707 202.561 145.259 202.561 144.707C202.561 144.155 202.113 143.707 201.561 143.707V145.707ZM197.485 143.707C196.932 143.707 196.485 144.155 196.485 144.707C196.485 145.259 196.932 145.707 197.485 145.707V143.707ZM190.691 145.707C191.244 145.707 191.691 145.259 191.691 144.707C191.691 144.155 191.244 143.707 190.691 143.707V145.707ZM186.615 143.707C186.063 143.707 185.615 144.155 185.615 144.707C185.615 145.259 186.063 145.707 186.615 145.707V143.707ZM179.822 145.707C180.374 145.707 180.822 145.259 180.822 144.707C180.822 144.155 180.374 143.707 179.822 143.707V145.707ZM175.746 143.707C175.194 143.707 174.746 144.155 174.746 144.707C174.746 145.259 175.194 145.707 175.746 145.707V143.707ZM168.953 145.707C169.505 145.707 169.953 145.259 169.953 144.707C169.953 144.155 169.505 143.707 168.953 143.707V145.707ZM164.877 143.707C164.325 143.707 163.877 144.155 163.877 144.707C163.877 145.259 164.325 145.707 164.877 145.707V143.707ZM158.083 145.707C158.636 145.707 159.083 145.259 159.083 144.707C159.083 144.155 158.636 143.707 158.083 143.707V145.707ZM154.007 143.707C153.455 143.707 153.007 144.155 153.007 144.707C153.007 145.259 153.455 145.707 154.007 145.707V143.707ZM147.214 145.707C147.766 145.707 148.214 145.259 148.214 144.707C148.214 144.155 147.766 143.707 147.214 143.707V145.707ZM143.138 143.707C142.586 143.707 142.138 144.155 142.138 144.707C142.138 145.259 142.586 145.707 143.138 145.707V143.707ZM136.345 145.707C136.897 145.707 137.345 145.259 137.345 144.707C137.345 144.155 136.897 143.707 136.345 143.707V145.707ZM132.269 143.707C131.717 143.707 131.269 144.155 131.269 144.707C131.269 145.259 131.717 145.707 132.269 145.707V143.707ZM125.476 145.707C126.028 145.707 126.476 145.259 126.476 144.707C126.476 144.155 126.028 143.707 125.476 143.707V145.707ZM121.4 143.707C120.847 143.707 120.4 144.155 120.4 144.707C120.4 145.259 120.847 145.707 121.4 145.707V143.707ZM114.606 145.707C115.158 145.707 115.606 145.259 115.606 144.707C115.606 144.155 115.158 143.707 114.606 143.707V145.707ZM110.53 143.707C109.978 143.707 109.53 144.155 109.53 144.707C109.53 145.259 109.978 145.707 110.53 145.707V143.707ZM103.737 145.707C104.289 145.707 104.737 145.259 104.737 144.707C104.737 144.155 104.289 143.707 103.737 143.707V145.707ZM99.6609 143.707C99.1086 143.707 98.6609 144.155 98.6609 144.707C98.6609 145.259 99.1086 145.707 99.6609 145.707V143.707ZM92.8676 145.707C93.4199 145.707 93.8676 145.259 93.8676 144.707C93.8676 144.155 93.4199 143.707 92.8676 143.707V145.707ZM88.7916 143.707C88.2393 143.707 87.7916 144.155 87.7916 144.707C87.7916 145.259 88.2393 145.707 88.7916 145.707V143.707ZM81.9983 145.707C82.5506 145.707 82.9983 145.259 82.9983 144.707C82.9983 144.155 82.5506 143.707 81.9983 143.707V145.707ZM77.9223 143.707C77.37 143.707 76.9223 144.155 76.9223 144.707C76.9223 145.259 77.37 145.707 77.9223 145.707V143.707ZM71.129 145.707C71.6812 145.707 72.129 145.259 72.129 144.707C72.129 144.155 71.6812 143.707 71.129 143.707V145.707ZM67.053 143.707C66.5007 143.707 66.053 144.155 66.053 144.707C66.053 145.259 66.5007 145.707 67.053 145.707V143.707ZM60.2597 145.707C60.8119 145.707 61.2597 145.259 61.2597 144.707C61.2597 144.155 60.8119 143.707 60.2597 143.707V145.707ZM56.1837 143.707C55.6314 143.707 55.1837 144.155 55.1837 144.707C55.1837 145.259 55.6314 145.707 56.1837 145.707V143.707ZM49.3904 145.707C49.9426 145.707 50.3904 145.259 50.3904 144.707C50.3904 144.155 49.9426 143.707 49.3904 143.707V145.707ZM46.3523 144.707V146.77H48.3523V144.707H46.3523ZM46.3523 153.645V157.771H48.3523V153.645H46.3523ZM46.3523 164.646V168.772H48.3523V164.646H46.3523ZM46.3523 175.647V179.773H48.3523V175.647H46.3523ZM46.3523 186.648V190.773H48.3523V186.648H46.3523ZM46.3523 197.649V201.774H48.3523V197.649H46.3523ZM46.3523 208.65V212.775H48.3523V208.65H46.3523ZM46.3523 219.651V223.776H48.3523V219.651H46.3523ZM46.3523 230.652V234.777H48.3523V230.652H46.3523ZM46.3523 241.653V245.778H48.3523V241.653H46.3523ZM46.3523 252.654V256.779H48.3523V252.654H46.3523ZM46.3523 263.655V267.78H48.3523V263.655H46.3523ZM46.3523 274.656V278.781H48.3523V274.656H46.3523ZM46.3523 285.657V289.782H48.3523V285.657H46.3523ZM46.3523 296.657V300.783H48.3523V296.657H46.3523ZM46.3523 307.658V311.784H48.3523V307.658H46.3523ZM46.3523 318.659V322.785H48.3523V318.659H46.3523ZM46.3523 329.66V333.786H48.3523V329.66H46.3523ZM46.3523 340.661V344.787H48.3523V340.661H46.3523ZM46.3523 351.662V355.787H48.3523V351.662H46.3523ZM46.3523 362.663V366.788H48.3523V362.663H46.3523ZM46.3523 373.664V377.789H48.3523V373.664H46.3523ZM46.3523 384.665V386.728H48.3523V384.665H46.3523ZM47.3523 387.728H49.431V385.728H47.3523V387.728ZM56.36 387.728H60.5173V385.728H56.36V387.728ZM67.4463 387.728H71.6037V385.728H67.4463V387.728ZM78.5327 387.728H82.6901V385.728H78.5327V387.728ZM89.619 387.728H93.7764V385.728H89.619V387.728ZM100.705 387.728H104.863V385.728H100.705V387.728ZM111.792 387.728H115.949V385.728H111.792V387.728ZM122.878 387.728H127.035V385.728H122.878V387.728ZM133.964 387.728H138.122V385.728H133.964V387.728ZM145.051 387.728H149.208V385.728H145.051V387.728ZM156.137 387.728H160.295V385.728H156.137V387.728ZM167.224 387.728H171.381V385.728H167.224V387.728ZM178.31 387.728H182.467V385.728H178.31V387.728ZM189.396 387.728H193.554V385.728H189.396V387.728ZM200.483 387.728H204.64V385.728H200.483V387.728ZM211.569 387.728H215.726V385.728H211.569V387.728ZM222.655 387.728H226.813V385.728H222.655V387.728ZM233.742 387.728H237.899V385.728H233.742V387.728ZM244.828 387.728H248.985V385.728H244.828V387.728ZM255.914 387.728H260.072V385.728H255.914V387.728ZM267.001 387.728H271.158V385.728H267.001V387.728ZM278.087 387.728H282.244V385.728H278.087V387.728ZM289.173 387.728H293.331V385.728H289.173V387.728ZM300.26 387.728H304.417V385.728H300.26V387.728ZM311.346 387.728H315.503V385.728H311.346V387.728ZM322.432 387.728H326.59V385.728H322.432V387.728ZM333.519 387.728H337.676V385.728H333.519V387.728ZM344.605 387.728H348.763V385.728H344.605V387.728ZM355.692 387.728H359.849V385.728H355.692V387.728ZM366.778 387.728H370.935V385.728H366.778V387.728ZM377.864 387.728H382.022V385.728H377.864V387.728ZM388.951 387.728H393.108V385.728H388.951V387.728ZM400.037 387.728H404.194V385.728H400.037V387.728ZM411.123 387.728H415.281V385.728H411.123V387.728ZM422.21 387.728H426.367V385.728H422.21V387.728ZM433.296 387.728H435.375V385.728H433.296V387.728ZM436.375 386.728V384.597H434.375V386.728H436.375ZM436.375 377.495V373.233H434.375V377.495H436.375ZM436.375 366.131V361.87H434.375V366.131H436.375ZM436.375 354.767V350.506H434.375V354.767H436.375ZM436.375 343.404V339.142H434.375V343.404H436.375ZM436.375 332.04V327.779H434.375V332.04H436.375ZM436.375 320.676V316.415H434.375V320.676H436.375ZM436.375 309.313V305.051H434.375V309.313H436.375ZM436.375 297.949V293.688H434.375V297.949H436.375ZM436.375 286.585V282.324H434.375V286.585H436.375ZM436.375 275.222V270.96H434.375V275.222H436.375ZM436.375 263.858V259.597H434.375V263.858H436.375ZM436.375 252.494V248.233H434.375V252.494H436.375ZM436.375 241.131V239H434.375V241.131H436.375ZM435.375 238H433.253V240H435.375V238ZM426.18 238H421.937V240H426.18V238ZM414.864 238H410.621V240H414.864V238ZM403.548 238H399.305V240H403.548V238ZM392.232 238H387.988V240H392.232V238ZM380.916 238H376.672V240H380.916V238ZM369.6 238H365.356V240H369.6V238ZM358.283 238H354.04V240H358.283V238ZM346.967 238H342.724V240H346.967V238ZM335.651 238H331.408V240H335.651V238ZM324.335 238H320.091V240H324.335V238ZM313.019 238H308.775V240H313.019V238ZM301.703 238H297.459V240H301.703V238ZM290.386 238H286.143V240H290.386V238ZM279.07 238H274.827V240H279.07V238ZM267.754 238H263.511V240H267.754V238ZM256.438 238H252.194V240H256.438V238ZM245.122 238H243V240H245.122V238ZM244 239V237.036H242V239H244ZM244 230.487V226.559H242V230.487H244ZM244 220.01V216.082H242V220.01H244ZM244 209.533V205.605H242V209.533H244ZM244 199.056V195.128H242V199.056H244ZM244 188.579V184.651H242V188.579H244ZM244 178.102V174.174H242V178.102H244ZM244 167.625V163.697H242V167.625H244ZM244 157.148V153.22H242V157.148H244ZM244 146.671V144.707H242V146.671H244ZM243 143.707H240.962V145.707H243V143.707ZM234.169 143.707H230.093V145.707H234.169V143.707ZM223.299 143.707H219.223V145.707H223.299V143.707ZM212.43 143.707H208.354V145.707H212.43V143.707ZM201.561 143.707H197.485V145.707H201.561V143.707ZM190.691 143.707H186.615V145.707H190.691V143.707ZM179.822 143.707H175.746V145.707H179.822V143.707ZM168.953 143.707H164.877V145.707H168.953V143.707ZM158.083 143.707H154.007V145.707H158.083V143.707ZM147.214 143.707H143.138V145.707H147.214V143.707ZM136.345 143.707H132.269V145.707H136.345V143.707ZM125.476 143.707H121.4V145.707H125.476V143.707ZM114.606 143.707H110.53V145.707H114.606V143.707ZM103.737 143.707H99.6609V145.707H103.737V143.707ZM92.8676 143.707H88.7916V145.707H92.8676V143.707ZM81.9983 143.707H77.9223V145.707H81.9983V143.707ZM71.129 143.707H67.053V145.707H71.129V143.707ZM60.2597 143.707H56.1837V145.707H60.2597V143.707ZM49.3904 143.707H47.3523V145.707H49.3904V143.707Z" fill="#651B59"/>
<circle cx="47.508" cy="144.845" r="4.1262" fill="#651B59"/>
<circle cx="243.169" cy="144.937" r="4.1262" fill="#651B59"/>
<circle cx="243.551" cy="239.122" r="4.1262" fill="#651B59"/>
<circle cx="138.303" cy="210.356" r="6.877" fill="#FF8686"/>
<circle cx="156.374" cy="254.674" r="6.877" fill="#FF8686"/>
<circle cx="72.1094" cy="361.066" r="6.877" fill="#FF8686"/>
<circle cx="243.637" cy="265.717" r="6.877" fill="#FF8686"/>
<path opacity="0.2" d="M186.313 283.234V270.565C186.313 265.608 189.361 261.161 193.983 259.373L212.919 252.047C217.542 250.259 220.59 245.812 220.59 240.856V173.521" stroke="url(#paint0_linear_77_2055)" stroke-width="10" stroke-linecap="round" stroke-linejoin="round"/>
<path opacity="0.1" d="M107.271 282.733L107.271 264.785C107.271 260.476 109.581 256.498 113.323 254.363L150.757 232.999C154.499 230.864 156.809 226.886 156.809 222.577V166.629" stroke="url(#paint1_linear_77_2055)" stroke-width="10" stroke-linecap="round" stroke-linejoin="round"/>
<path d="M185.313 274.982C185.313 275.534 185.761 275.982 186.313 275.982C186.865 275.982 187.313 275.534 187.313 274.982H185.313ZM221.59 173.521C221.59 172.969 221.142 172.521 220.59 172.521C220.037 172.521 219.59 172.969 219.59 173.521H221.59ZM212.919 252.047L212.558 251.115L212.919 252.047ZM193.983 259.373L193.623 258.44L193.983 259.373ZM187.313 274.246C187.313 273.693 186.865 273.246 186.313 273.246C185.761 273.246 185.313 273.693 185.313 274.246H187.313ZM185.313 271.301C185.313 271.853 185.761 272.301 186.313 272.301C186.865 272.301 187.313 271.853 187.313 271.301H185.313ZM187.368 269.464C187.423 268.915 187.022 268.425 186.473 268.369C185.923 268.314 185.433 268.715 185.378 269.265L187.368 269.464ZM186.909 264.324C186.644 264.808 186.821 265.416 187.306 265.681C187.79 265.946 188.398 265.769 188.663 265.284L186.909 264.324ZM189.907 263.47C190.263 263.048 190.209 262.417 189.787 262.061C189.365 261.704 188.734 261.758 188.378 262.18L189.907 263.47ZM192.434 258.97C191.941 259.219 191.744 259.821 191.994 260.314C192.243 260.806 192.845 261.003 193.338 260.754L192.434 258.97ZM195.922 259.695C196.437 259.496 196.693 258.917 196.494 258.402C196.295 257.886 195.716 257.63 195.201 257.83L195.922 259.695ZM201.512 255.388C200.997 255.587 200.741 256.166 200.941 256.681C201.14 257.196 201.719 257.452 202.234 257.253L201.512 255.388ZM205.39 256.032C205.905 255.833 206.161 255.254 205.962 254.739C205.763 254.224 205.184 253.968 204.668 254.167L205.39 256.032ZM210.98 251.725C210.465 251.924 210.209 252.504 210.409 253.019C210.608 253.534 211.187 253.79 211.702 253.59L210.98 251.725ZM214.469 252.451C214.961 252.201 215.158 251.599 214.909 251.107C214.659 250.614 214.057 250.417 213.565 250.667L214.469 252.451ZM216.996 247.95C216.64 248.373 216.693 249.003 217.115 249.36C217.537 249.716 218.168 249.662 218.525 249.24L216.996 247.95ZM219.994 247.096C220.259 246.612 220.081 246.004 219.597 245.739C219.112 245.474 218.505 245.651 218.239 246.136L219.994 247.096ZM219.535 241.956C219.48 242.505 219.88 242.996 220.43 243.051C220.98 243.106 221.47 242.705 221.525 242.155L219.535 241.956ZM221.59 239.252C221.59 238.7 221.142 238.252 220.59 238.252C220.037 238.252 219.59 238.7 219.59 239.252H221.59ZM219.59 232.84C219.59 233.392 220.037 233.84 220.59 233.84C221.142 233.84 221.59 233.392 221.59 232.84H219.59ZM221.59 229.633C221.59 229.081 221.142 228.633 220.59 228.633C220.037 228.633 219.59 229.081 219.59 229.633H221.59ZM219.59 223.22C219.59 223.773 220.037 224.22 220.59 224.22C221.142 224.22 221.59 223.773 221.59 223.22H219.59ZM221.59 220.014C221.59 219.462 221.142 219.014 220.59 219.014C220.037 219.014 219.59 219.462 219.59 220.014H221.59ZM219.59 213.601C219.59 214.154 220.037 214.601 220.59 214.601C221.142 214.601 221.59 214.154 221.59 213.601H219.59ZM221.59 210.395C221.59 209.843 221.142 209.395 220.59 209.395C220.037 209.395 219.59 209.843 219.59 210.395H221.59ZM219.59 203.982C219.59 204.534 220.037 204.982 220.59 204.982C221.142 204.982 221.59 204.534 221.59 203.982H219.59ZM221.59 200.776C221.59 200.223 221.142 199.776 220.59 199.776C220.037 199.776 219.59 200.223 219.59 200.776H221.59ZM219.59 194.363C219.59 194.915 220.037 195.363 220.59 195.363C221.142 195.363 221.59 194.915 221.59 194.363H219.59ZM221.59 191.157C221.59 190.604 221.142 190.157 220.59 190.157C220.037 190.157 219.59 190.604 219.59 191.157H221.59ZM219.59 184.744C219.59 185.296 220.037 185.744 220.59 185.744C221.142 185.744 221.59 185.296 221.59 184.744H219.59ZM221.59 181.537C221.59 180.985 221.142 180.537 220.59 180.537C220.037 180.537 219.59 180.985 219.59 181.537H221.59ZM219.59 175.125C219.59 175.677 220.037 176.125 220.59 176.125C221.142 176.125 221.59 175.677 221.59 175.125H219.59ZM187.313 274.982V274.246H185.313V274.982H187.313ZM187.313 271.301V270.565H185.313V271.301H187.313ZM187.313 270.565C187.313 270.194 187.332 269.827 187.368 269.464L185.378 269.265C185.335 269.694 185.313 270.127 185.313 270.565H187.313ZM188.663 265.284C189.016 264.64 189.433 264.031 189.907 263.47L188.378 262.18C187.818 262.844 187.326 263.562 186.909 264.324L188.663 265.284ZM193.338 260.754C193.663 260.589 193.999 260.439 194.344 260.305L193.623 258.44C193.215 258.598 192.818 258.775 192.434 258.97L193.338 260.754ZM194.344 260.305L195.922 259.695L195.201 257.83L193.623 258.44L194.344 260.305ZM202.234 257.253L205.39 256.032L204.668 254.167L201.512 255.388L202.234 257.253ZM211.702 253.59L213.28 252.98L212.558 251.115L210.98 251.725L211.702 253.59ZM213.28 252.98C213.688 252.822 214.084 252.645 214.469 252.451L213.565 250.667C213.239 250.831 212.904 250.981 212.558 251.115L213.28 252.98ZM218.525 249.24C219.084 248.576 219.577 247.858 219.994 247.096L218.239 246.136C217.886 246.781 217.47 247.389 216.996 247.95L218.525 249.24ZM221.525 242.155C221.568 241.726 221.59 241.293 221.59 240.856H219.59C219.59 241.226 219.571 241.593 219.535 241.956L221.525 242.155ZM221.59 240.856V239.252H219.59V240.856H221.59ZM221.59 232.84V229.633H219.59V232.84H221.59ZM221.59 223.22V220.014H219.59V223.22H221.59ZM221.59 213.601V210.395H219.59V213.601H221.59ZM221.59 203.982V200.776H219.59V203.982H221.59ZM221.59 194.363V191.157H219.59V194.363H221.59ZM221.59 184.744V181.537H219.59V184.744H221.59ZM221.59 175.125V173.521H219.59V175.125H221.59Z" fill="#651B59"/>
<path d="M106.271 283.219C106.271 283.771 106.718 284.219 107.271 284.219C107.823 284.219 108.271 283.771 108.271 283.219H106.271ZM157.809 173.506C157.809 172.954 157.362 172.506 156.809 172.506C156.257 172.506 155.809 172.954 155.809 173.506H157.809ZM150.776 233.266L150.279 232.399L150.776 233.266ZM113.304 254.741L112.807 253.873L113.304 254.741ZM108.271 281.713C108.271 281.161 107.823 280.713 107.271 280.713C106.718 280.713 106.271 281.161 106.271 281.713H108.271ZM106.271 275.691C106.271 276.243 106.718 276.691 107.271 276.691C107.823 276.691 108.271 276.243 108.271 275.691H106.271ZM108.271 272.68C108.271 272.128 107.823 271.68 107.271 271.68C106.718 271.68 106.271 272.128 106.271 272.68H108.271ZM106.271 266.658C106.271 267.21 106.718 267.658 107.271 267.658C107.823 267.658 108.271 267.21 108.271 266.658H106.271ZM108.439 263.236C108.535 262.692 108.172 262.173 107.628 262.077C107.084 261.981 106.565 262.344 106.469 262.888L108.439 263.236ZM110.941 255.171C110.517 255.525 110.46 256.156 110.814 256.58C111.168 257.004 111.798 257.061 112.222 256.707L110.941 255.171ZM115.05 254.893C115.53 254.618 115.695 254.007 115.421 253.528C115.146 253.049 114.535 252.883 114.056 253.157L115.05 254.893ZM119.052 250.294C118.573 250.569 118.407 251.18 118.682 251.659C118.956 252.138 119.567 252.304 120.047 252.029L119.052 250.294ZM122.545 250.598C123.024 250.323 123.19 249.712 122.915 249.233C122.641 248.754 122.03 248.588 121.55 248.862L122.545 250.598ZM126.547 245.999C126.067 246.274 125.902 246.885 126.176 247.364C126.451 247.843 127.062 248.009 127.541 247.734L126.547 245.999ZM130.039 246.303C130.518 246.028 130.684 245.417 130.41 244.938C130.135 244.459 129.524 244.293 129.045 244.568L130.039 246.303ZM134.041 241.704C133.562 241.979 133.396 242.59 133.671 243.069C133.945 243.548 134.556 243.714 135.035 243.44L134.041 241.704ZM137.534 242.008C138.013 241.733 138.179 241.122 137.904 240.643C137.629 240.164 137.018 239.998 136.539 240.273L137.534 242.008ZM141.535 237.409C141.056 237.684 140.89 238.295 141.165 238.774C141.44 239.253 142.051 239.419 142.53 239.145L141.535 237.409ZM145.028 237.713C145.507 237.438 145.673 236.827 145.398 236.348C145.124 235.869 144.513 235.703 144.033 235.978L145.028 237.713ZM149.03 233.115C148.551 233.389 148.385 234 148.659 234.479C148.934 234.959 149.545 235.124 150.024 234.85L149.03 233.115ZM153.139 232.836C153.563 232.482 153.62 231.851 153.266 231.427C152.912 231.003 152.282 230.946 151.858 231.3L153.139 232.836ZM155.641 224.771C155.545 225.315 155.908 225.834 156.452 225.93C156.996 226.026 157.515 225.663 157.611 225.119L155.641 224.771ZM157.809 221.21C157.809 220.658 157.362 220.21 156.809 220.21C156.257 220.21 155.809 220.658 155.809 221.21H157.809ZM155.809 214.63C155.809 215.182 156.257 215.63 156.809 215.63C157.362 215.63 157.809 215.182 157.809 214.63H155.809ZM157.809 211.34C157.809 210.788 157.362 210.34 156.809 210.34C156.257 210.34 155.809 210.788 155.809 211.34H157.809ZM155.809 204.76C155.809 205.313 156.257 205.76 156.809 205.76C157.362 205.76 157.809 205.313 157.809 204.76H155.809ZM157.809 201.47C157.809 200.918 157.362 200.47 156.809 200.47C156.257 200.47 155.809 200.918 155.809 201.47H157.809ZM155.809 194.89C155.809 195.443 156.257 195.89 156.809 195.89C157.362 195.89 157.809 195.443 157.809 194.89H155.809ZM157.809 191.6C157.809 191.048 157.362 190.6 156.809 190.6C156.257 190.6 155.809 191.048 155.809 191.6H157.809ZM155.809 185.021C155.809 185.573 156.257 186.021 156.809 186.021C157.362 186.021 157.809 185.573 157.809 185.021H155.809ZM157.809 181.731C157.809 181.178 157.362 180.731 156.809 180.731C156.257 180.731 155.809 181.178 155.809 181.731H157.809ZM155.809 175.151C155.809 175.703 156.257 176.151 156.809 176.151C157.362 176.151 157.809 175.703 157.809 175.151H155.809ZM108.271 283.219V281.713H106.271V283.219H108.271ZM108.271 275.691V272.68H106.271V275.691H108.271ZM108.271 266.658V265.152H106.271V266.658H108.271ZM108.271 265.152C108.271 264.503 108.328 263.862 108.439 263.236L106.469 262.888C106.338 263.628 106.271 264.386 106.271 265.152H108.271ZM112.222 256.707C112.711 256.299 113.238 255.931 113.801 255.608L112.807 253.873C112.142 254.254 111.518 254.689 110.941 255.171L112.222 256.707ZM113.801 255.608L115.05 254.893L114.056 253.157L112.807 253.873L113.801 255.608ZM120.047 252.029L122.545 250.598L121.55 248.862L119.052 250.294L120.047 252.029ZM127.541 247.734L130.039 246.303L129.045 244.568L126.547 245.999L127.541 247.734ZM135.035 243.44L137.534 242.008L136.539 240.273L134.041 241.704L135.035 243.44ZM142.53 239.145L145.028 237.713L144.033 235.978L141.535 237.409L142.53 239.145ZM150.024 234.85L151.273 234.134L150.279 232.399L149.03 233.115L150.024 234.85ZM151.273 234.134C151.938 233.753 152.562 233.318 153.139 232.836L151.858 231.3C151.369 231.708 150.842 232.076 150.279 232.399L151.273 234.134ZM157.611 225.119C157.742 224.379 157.809 223.622 157.809 222.855H155.809C155.809 223.504 155.752 224.145 155.641 224.771L157.611 225.119ZM157.809 222.855V221.21H155.809V222.855H157.809ZM157.809 214.63V211.34H155.809V214.63H157.809ZM157.809 204.76V201.47H155.809V204.76H157.809ZM157.809 194.89V191.6H155.809V194.89H157.809ZM157.809 185.021V181.731H155.809V185.021H157.809ZM157.809 175.151V173.506H155.809V175.151H157.809Z" fill="#651B59"/>
<circle cx="294.365" cy="304.113" r="6.877" fill="#709BFF"/>
<circle cx="294.365" cy="304.112" r="13.2566" stroke="#651B59" stroke-width="2" stroke-linecap="round" stroke-dasharray="3 5"/>
<circle cx="435.274" cy="239.538" r="4.1262" fill="#651B59"/>
<circle cx="434.989" cy="385.732" r="4.1262" fill="#651B59"/>
<circle cx="47.728" cy="385.732" r="4.1262" fill="#651B59"/>
<rect x="91.9048" y="158.883" width="30.7327" height="80.657" rx="4" fill="#651B59" fill-opacity="0.11"/>
<rect x="170.934" y="158.883" width="30.7327" height="80.657" rx="4" fill="#651B59" fill-opacity="0.11"/>
<rect x="423.295" y="250.354" width="30.7327" height="168.49" rx="4" transform="rotate(90 423.295 250.354)" fill="#651B59" fill-opacity="0.11"/>
<rect x="423.295" y="344.141" width="30.7327" height="168.49" rx="4" transform="rotate(90 423.295 344.141)" fill="#651B59" fill-opacity="0.11"/>
<circle cx="186.3" cy="294.766" r="6.877" fill="#709BFF"/>
<circle cx="107.271" cy="282.564" r="6.877" fill="#709BFF"/>
<path d="M160.715 171.436L156.809 167.529L152.903 171.436" stroke="#651B59" stroke-width="1.5" stroke-linecap="round" stroke-linejoin="round"/>
<path d="M182.328 278.548L186.3 282.52L190.272 278.548" stroke="#651B59" stroke-width="1.5" stroke-linecap="round" stroke-linejoin="round"/>
<rect x="422.036" y="140.379" width="17.3664" height="17.3664" rx="4" fill="#651B59" fill-opacity="0.13"/>
<rect x="422.036" y="166.658" width="17.3664" height="17.3664" rx="4" fill="#651B59" fill-opacity="0.13"/>
<rect x="422.036" y="192.939" width="17.3664" height="17.3664" rx="4" fill="#651B59" fill-opacity="0.13"/>
<path fill-rule="evenodd" clip-rule="evenodd" d="M339.884 409C333.321 409 328 403.679 328 397.116L328 313.732L319.026 304.757C318.252 303.984 318.252 302.73 319.026 301.957L328 292.982V279.884C328 273.321 333.321 268 339.884 268L469.116 268C475.679 268 481 273.321 481 279.884L481 397.116C481 403.679 475.679 409 469.116 409L339.884 409Z" fill="white"/>
<path d="M328 397.116H329H328ZM339.884 409V410V409ZM328 313.732L328.707 313.025C328.895 313.212 329 313.466 329 313.732H328ZM319.026 304.757L318.318 305.464L319.026 304.757ZM319.026 301.957L318.318 301.249L319.026 301.957ZM328 292.982H329C329 293.247 328.895 293.502 328.707 293.689L328 292.982ZM339.884 268V269V268ZM469.116 268V267V268ZM481 279.884H480H481ZM481 397.116H482H481ZM469.116 409V408V409ZM329 397.116C329 403.127 333.873 408 339.884 408V410C332.768 410 327 404.232 327 397.116H329ZM329 313.732L329 397.116H327L327 313.732H329ZM319.733 304.05L328.707 313.025L327.293 314.439L318.318 305.464L319.733 304.05ZM319.733 302.664C319.35 303.047 319.35 303.667 319.733 304.05L318.318 305.464C317.155 304.3 317.155 302.413 318.318 301.249L319.733 302.664ZM328.707 293.689L319.733 302.664L318.318 301.249L327.293 292.275L328.707 293.689ZM329 279.884V292.982H327V279.884H329ZM339.884 269C333.873 269 329 273.873 329 279.884H327C327 272.768 332.768 267 339.884 267V269ZM469.116 269L339.884 269V267L469.116 267V269ZM480 279.884C480 273.873 475.127 269 469.116 269V267C476.232 267 482 272.768 482 279.884H480ZM480 397.116L480 279.884H482L482 397.116H480ZM469.116 408C475.127 408 480 403.127 480 397.116H482C482 404.232 476.232 410 469.116 410V408ZM339.884 408L469.116 408V410L339.884 410V408Z" fill="#651B59"/>
<path opacity="0.5" d="M348.962 298.609C348.888 298.609 348.832 298.583 348.792 298.529C348.758 298.476 348.758 298.416 348.792 298.349L351.862 291.619C351.902 291.546 351.958 291.509 352.032 291.509H352.132C352.205 291.509 352.262 291.546 352.302 291.619L355.352 298.349C355.385 298.416 355.382 298.476 355.342 298.529C355.308 298.583 355.255 298.609 355.182 298.609H354.552C354.445 298.609 354.368 298.559 354.322 298.459L353.702 297.089H350.432L349.822 298.459C349.782 298.559 349.705 298.609 349.592 298.609H348.962ZM350.822 296.229H353.322L352.092 293.489H352.042L350.822 296.229ZM356.805 297.669C356.105 296.969 355.755 296.119 355.755 295.119C355.755 294.119 356.105 293.269 356.805 292.569C357.512 291.863 358.365 291.509 359.365 291.509C360.265 291.509 361.072 291.819 361.785 292.439C361.885 292.533 361.888 292.626 361.795 292.719L361.355 293.169C361.282 293.263 361.198 293.263 361.105 293.169C360.592 292.723 360.015 292.499 359.375 292.499C358.668 292.499 358.072 292.756 357.585 293.269C357.105 293.783 356.865 294.393 356.865 295.099C356.865 295.806 357.108 296.416 357.595 296.929C358.082 297.436 358.678 297.689 359.385 297.689C359.958 297.689 360.532 297.469 361.105 297.029C361.192 296.963 361.272 296.959 361.345 297.019L361.805 297.469C361.845 297.509 361.862 297.556 361.855 297.609C361.855 297.656 361.835 297.699 361.795 297.739C361.128 298.386 360.318 298.709 359.365 298.709C358.365 298.709 357.512 298.363 356.805 297.669ZM364.337 298.419V292.549H362.707C362.654 292.549 362.607 292.533 362.567 292.499C362.534 292.459 362.517 292.413 362.517 292.359V291.799C362.517 291.746 362.534 291.703 362.567 291.669C362.607 291.629 362.654 291.609 362.707 291.609H367.007C367.061 291.609 367.104 291.629 367.137 291.669C367.177 291.703 367.197 291.746 367.197 291.799V292.359C367.197 292.413 367.177 292.459 367.137 292.499C367.104 292.533 367.061 292.549 367.007 292.549H365.377V298.419C365.377 298.466 365.357 298.509 365.317 298.549C365.277 298.589 365.234 298.609 365.187 298.609H364.527C364.481 298.609 364.437 298.589 364.397 298.549C364.357 298.509 364.337 298.466 364.337 298.419ZM368.363 298.419V291.799C368.363 291.753 368.379 291.709 368.413 291.669C368.453 291.629 368.499 291.609 368.553 291.609H369.213C369.266 291.609 369.309 291.629 369.343 291.669C369.383 291.709 369.403 291.753 369.403 291.799V298.419C369.403 298.466 369.383 298.509 369.343 298.549C369.309 298.589 369.266 298.609 369.213 298.609H368.553C368.499 298.609 368.453 298.589 368.413 298.549C368.379 298.509 368.363 298.466 368.363 298.419ZM371.834 297.669C371.141 296.969 370.794 296.119 370.794 295.119C370.794 294.119 371.141 293.269 371.834 292.569C372.534 291.863 373.384 291.509 374.384 291.509C375.384 291.509 376.234 291.863 376.934 292.569C377.634 293.269 377.984 294.119 377.984 295.119C377.984 296.119 377.634 296.969 376.934 297.669C376.234 298.363 375.384 298.709 374.384 298.709C373.384 298.709 372.534 298.363 371.834 297.669ZM372.554 293.269C372.047 293.789 371.794 294.406 371.794 295.119C371.794 295.833 372.047 296.449 372.554 296.969C373.067 297.483 373.677 297.739 374.384 297.739C375.097 297.739 375.707 297.483 376.214 296.969C376.727 296.449 376.984 295.833 376.984 295.119C376.984 294.406 376.727 293.789 376.214 293.269C375.707 292.743 375.097 292.479 374.384 292.479C373.677 292.479 373.067 292.743 372.554 293.269ZM379.378 298.419V291.689C379.378 291.643 379.395 291.603 379.428 291.569C379.468 291.529 379.515 291.509 379.568 291.509H379.648C379.762 291.509 379.862 291.559 379.948 291.659L384.148 296.529H384.168V291.799C384.168 291.746 384.185 291.703 384.218 291.669C384.258 291.629 384.305 291.609 384.358 291.609H384.998C385.045 291.609 385.088 291.629 385.128 291.669C385.168 291.709 385.188 291.753 385.188 291.799V298.529C385.188 298.576 385.168 298.616 385.128 298.649C385.095 298.689 385.052 298.709 384.998 298.709H384.908C384.795 298.709 384.698 298.663 384.618 298.569L380.408 293.549H380.388V298.419C380.388 298.473 380.368 298.519 380.328 298.559C380.295 298.593 380.252 298.609 380.198 298.609H379.568C379.515 298.609 379.468 298.589 379.428 298.549C379.395 298.509 379.378 298.466 379.378 298.419ZM386.685 297.919C386.572 297.819 386.552 297.713 386.625 297.599L386.885 297.189C386.925 297.123 386.979 297.083 387.045 297.069C387.112 297.049 387.172 297.063 387.225 297.109C387.425 297.276 387.579 297.399 387.685 297.479C387.799 297.553 387.955 297.626 388.155 297.699C388.362 297.766 388.585 297.799 388.825 297.799C389.165 297.799 389.439 297.709 389.645 297.529C389.852 297.349 389.955 297.129 389.955 296.869C389.955 296.583 389.832 296.333 389.585 296.119C389.345 295.906 388.965 295.693 388.445 295.479C387.859 295.233 387.409 294.953 387.095 294.639C386.782 294.319 386.625 293.893 386.625 293.359C386.625 293.153 386.665 292.946 386.745 292.739C386.832 292.533 386.955 292.336 387.115 292.149C387.282 291.956 387.512 291.803 387.805 291.689C388.099 291.569 388.435 291.509 388.815 291.509C389.489 291.509 390.105 291.706 390.665 292.099C390.799 292.186 390.819 292.299 390.725 292.439L390.475 292.819C390.382 292.973 390.265 293.006 390.125 292.919C389.945 292.806 389.809 292.723 389.715 292.669C389.622 292.616 389.485 292.563 389.305 292.509C389.132 292.449 388.955 292.419 388.775 292.419C388.395 292.419 388.112 292.513 387.925 292.699C387.739 292.886 387.645 293.093 387.645 293.319C387.645 293.593 387.749 293.826 387.955 294.019C388.162 294.213 388.482 294.399 388.915 294.579C389.609 294.859 390.139 295.166 390.505 295.499C390.879 295.826 391.065 296.266 391.065 296.819C391.065 297.346 390.852 297.793 390.425 298.159C390.005 298.526 389.475 298.709 388.835 298.709C388.469 298.709 388.112 298.649 387.765 298.529C387.425 298.409 387.182 298.299 387.035 298.199C386.895 298.099 386.779 298.006 386.685 297.919Z" fill="black"/>
<path d="M351.19 325.361C350.07 324.241 349.51 322.881 349.51 321.281C349.51 319.681 350.07 318.321 351.19 317.201C352.32 316.071 353.68 315.505 355.27 315.505C356.699 315.505 357.995 316.001 359.158 316.993C359.318 317.153 359.323 317.303 359.174 317.441C359.099 317.527 358.982 317.655 358.822 317.825C358.662 317.985 358.539 318.108 358.454 318.193C358.336 318.321 358.198 318.316 358.038 318.177C357.206 317.452 356.299 317.089 355.318 317.089C354.198 317.089 353.248 317.5 352.47 318.321C351.691 319.143 351.302 320.119 351.302 321.249C351.302 322.38 351.691 323.356 352.47 324.177C353.248 324.988 354.198 325.393 355.318 325.393C355.499 325.393 355.675 325.388 355.846 325.377C356.027 325.356 356.192 325.329 356.342 325.297C356.491 325.265 356.63 325.233 356.758 325.201C356.896 325.169 357.019 325.132 357.126 325.089C357.243 325.047 357.334 325.015 357.398 324.993C357.472 324.961 357.542 324.929 357.606 324.897C357.67 324.865 357.707 324.849 357.718 324.849V323.057H356.15C356.064 323.057 355.99 323.031 355.926 322.977C355.872 322.924 355.846 322.855 355.846 322.769V321.841C355.846 321.639 355.947 321.537 356.15 321.537H359.078C359.152 321.537 359.216 321.569 359.27 321.633C359.334 321.687 359.366 321.756 359.366 321.841V325.713C359.366 325.82 359.323 325.905 359.238 325.969C359.11 326.044 358.934 326.14 358.71 326.257C358.486 326.375 358.027 326.535 357.334 326.737C356.64 326.929 355.952 327.025 355.27 327.025C353.67 327.025 352.31 326.471 351.19 325.361ZM360.929 323.153C360.929 322.108 361.297 321.207 362.033 320.449C362.78 319.692 363.67 319.313 364.705 319.313C365.729 319.313 366.609 319.692 367.345 320.449C368.092 321.207 368.465 322.108 368.465 323.153C368.465 324.209 368.097 325.121 367.361 325.889C366.625 326.657 365.74 327.041 364.705 327.041C363.67 327.041 362.78 326.657 362.033 325.889C361.297 325.121 360.929 324.209 360.929 323.153ZM362.497 323.153C362.497 323.836 362.705 324.401 363.121 324.849C363.548 325.297 364.076 325.521 364.705 325.521C365.324 325.521 365.841 325.297 366.257 324.849C366.684 324.391 366.897 323.825 366.897 323.153C366.897 322.492 366.684 321.943 366.257 321.505C365.841 321.057 365.324 320.833 364.705 320.833C364.076 320.833 363.548 321.057 363.121 321.505C362.705 321.943 362.497 322.492 362.497 323.153ZM350.198 354.561V343.969C350.198 343.884 350.224 343.815 350.278 343.761C350.342 343.697 350.416 343.665 350.502 343.665H356.902C356.987 343.665 357.056 343.697 357.11 343.761C357.174 343.815 357.206 343.884 357.206 343.969V344.865C357.206 344.951 357.174 345.025 357.11 345.089C357.056 345.143 356.987 345.169 356.902 345.169H351.846V348.433H356.118C356.192 348.433 356.262 348.465 356.326 348.529C356.39 348.593 356.422 348.663 356.422 348.737V349.633C356.422 349.719 356.39 349.793 356.326 349.857C356.272 349.911 356.203 349.937 356.118 349.937H351.846V353.377H356.902C356.987 353.377 357.056 353.409 357.11 353.473C357.174 353.527 357.206 353.596 357.206 353.681V354.561C357.206 354.647 357.174 354.721 357.11 354.785C357.056 354.839 356.987 354.865 356.902 354.865H350.502C350.416 354.865 350.342 354.839 350.278 354.785C350.224 354.721 350.198 354.647 350.198 354.561ZM361.074 354.849L357.874 347.889C357.81 347.783 357.805 347.687 357.858 347.601C357.912 347.516 358.008 347.473 358.146 347.473H359.122C359.272 347.473 359.378 347.543 359.442 347.681L361.41 352.209H361.442L363.506 347.681C363.57 347.543 363.736 347.473 364.002 347.473H364.722C364.861 347.473 364.957 347.516 365.01 347.601C365.064 347.687 365.058 347.783 364.994 347.889L361.794 354.849C361.73 354.977 361.629 355.041 361.49 355.041H361.394C361.245 355.041 361.138 354.977 361.074 354.849ZM365.724 352.577C365.724 351.873 365.985 351.303 366.508 350.865C367.03 350.417 367.756 350.193 368.684 350.193C368.908 350.193 369.142 350.215 369.388 350.257C369.644 350.289 369.836 350.321 369.964 350.353L370.172 350.417C370.193 349.82 370.113 349.388 369.932 349.121C369.761 348.855 369.446 348.721 368.988 348.721C368.412 348.721 367.724 348.839 366.924 349.073C366.7 349.116 366.561 349.015 366.508 348.769L366.364 348.161C366.321 347.948 366.401 347.804 366.604 347.729C367.34 347.452 368.188 347.313 369.148 347.313C369.713 347.313 370.177 347.393 370.54 347.553C370.902 347.703 371.164 347.943 371.324 348.273C371.494 348.604 371.606 348.94 371.66 349.281C371.713 349.612 371.74 350.044 371.74 350.577V354.513C371.74 354.609 371.702 354.695 371.628 354.769C371.553 354.833 371.473 354.865 371.388 354.865H370.86C370.732 354.865 370.63 354.78 370.556 354.609L370.38 354.113C369.74 354.732 368.982 355.041 368.108 355.041C367.404 355.041 366.828 354.823 366.38 354.385C365.942 353.937 365.724 353.335 365.724 352.577ZM367.292 352.561C367.292 352.903 367.388 353.185 367.58 353.409C367.782 353.623 368.07 353.729 368.444 353.729C368.785 353.729 369.121 353.633 369.452 353.441C369.793 353.249 370.028 353.047 370.156 352.833V351.601C370.081 351.559 369.91 351.505 369.644 351.441C369.388 351.377 369.11 351.345 368.812 351.345C368.364 351.345 367.996 351.457 367.708 351.681C367.43 351.895 367.292 352.188 367.292 352.561ZM373.445 351.185C373.445 350.108 373.818 349.196 374.565 348.449C375.311 347.692 376.202 347.313 377.237 347.313C378.335 347.313 379.231 347.74 379.925 348.593C380.074 348.775 380.053 348.951 379.861 349.121L379.285 349.649C379.146 349.777 378.986 349.751 378.805 349.569C378.357 349.079 377.85 348.833 377.285 348.833C376.655 348.833 376.122 349.057 375.685 349.505C375.258 349.953 375.045 350.508 375.045 351.169C375.045 351.831 375.253 352.391 375.669 352.849C376.095 353.297 376.618 353.521 377.237 353.521C377.418 353.521 377.583 353.505 377.733 353.473C377.882 353.441 378.021 353.383 378.149 353.297C378.287 353.212 378.389 353.148 378.453 353.105C378.517 353.052 378.613 352.961 378.741 352.833C378.879 352.705 378.959 352.631 378.981 352.609C379.141 352.449 379.306 352.439 379.477 352.577L379.973 352.977C380.175 353.159 380.218 353.335 380.101 353.505C379.418 354.529 378.458 355.041 377.221 355.041C376.175 355.041 375.285 354.673 374.549 353.937C373.813 353.201 373.445 352.284 373.445 351.185ZM381.704 351.649V347.825C381.704 347.74 381.741 347.66 381.816 347.585C381.89 347.511 381.97 347.473 382.056 347.473H382.952C383.048 347.473 383.128 347.511 383.192 347.585C383.266 347.66 383.304 347.74 383.304 347.825V351.761C383.304 352.935 383.784 353.521 384.744 353.521C385.213 353.521 385.608 353.377 385.928 353.089C386.248 352.801 386.429 352.54 386.472 352.305V347.825C386.472 347.687 386.504 347.596 386.568 347.553C386.632 347.5 386.738 347.473 386.888 347.473H387.704C387.8 347.473 387.885 347.511 387.96 347.585C388.034 347.66 388.072 347.74 388.072 347.825V354.513C388.072 354.609 388.034 354.695 387.96 354.769C387.885 354.833 387.8 354.865 387.704 354.865H387.32C387.17 354.865 387.058 354.764 386.984 354.561L386.792 354.033L386.712 354.097C386.669 354.151 386.632 354.193 386.6 354.225C386.568 354.257 386.514 354.305 386.44 354.369C386.376 354.423 386.306 354.476 386.232 354.529C386.168 354.572 386.088 354.62 385.992 354.673C385.896 354.727 385.794 354.775 385.688 354.817C385.581 354.86 385.464 354.897 385.336 354.929C385.208 354.972 385.069 354.999 384.92 355.009C384.77 355.031 384.616 355.041 384.456 355.041C383.421 355.041 382.701 354.748 382.296 354.161C381.901 353.564 381.704 352.727 381.704 351.649ZM389.755 352.577C389.755 351.873 390.016 351.303 390.539 350.865C391.061 350.417 391.787 350.193 392.715 350.193C392.939 350.193 393.173 350.215 393.419 350.257C393.675 350.289 393.867 350.321 393.995 350.353L394.203 350.417C394.224 349.82 394.144 349.388 393.963 349.121C393.792 348.855 393.477 348.721 393.019 348.721C392.443 348.721 391.755 348.839 390.955 349.073C390.731 349.116 390.592 349.015 390.539 348.769L390.395 348.161C390.352 347.948 390.432 347.804 390.635 347.729C391.371 347.452 392.219 347.313 393.179 347.313C393.744 347.313 394.208 347.393 394.571 347.553C394.933 347.703 395.195 347.943 395.355 348.273C395.525 348.604 395.637 348.94 395.691 349.281C395.744 349.612 395.771 350.044 395.771 350.577V354.513C395.771 354.609 395.733 354.695 395.659 354.769C395.584 354.833 395.504 354.865 395.419 354.865H394.891C394.763 354.865 394.661 354.78 394.587 354.609L394.411 354.113C393.771 354.732 393.013 355.041 392.139 355.041C391.435 355.041 390.859 354.823 390.411 354.385C389.973 353.937 389.755 353.335 389.755 352.577ZM391.323 352.561C391.323 352.903 391.419 353.185 391.611 353.409C391.813 353.623 392.101 353.729 392.475 353.729C392.816 353.729 393.152 353.633 393.483 353.441C393.824 353.249 394.059 353.047 394.187 352.833V351.601C394.112 351.559 393.941 351.505 393.675 351.441C393.419 351.377 393.141 351.345 392.843 351.345C392.395 351.345 392.027 351.457 391.739 351.681C391.461 351.895 391.323 352.188 391.323 352.561ZM398.436 352.833V348.833H397.588C397.492 348.833 397.406 348.801 397.332 348.737C397.268 348.663 397.236 348.577 397.236 348.481V347.825C397.236 347.591 397.353 347.473 397.588 347.473H398.436V345.409C398.436 345.313 398.468 345.233 398.532 345.169C398.606 345.095 398.692 345.057 398.788 345.057H399.7C399.796 345.057 399.876 345.095 399.94 345.169C400.004 345.233 400.036 345.313 400.036 345.409V347.473H401.988C402.084 347.473 402.164 347.505 402.228 347.569C402.302 347.633 402.34 347.719 402.34 347.825V348.481C402.34 348.567 402.302 348.647 402.228 348.721C402.164 348.796 402.084 348.833 401.988 348.833H400.036V352.769C400.036 353.057 400.084 353.255 400.18 353.361C400.286 353.468 400.436 353.521 400.628 353.521C401.022 353.521 401.417 353.404 401.812 353.169C402.014 353.052 402.158 353.105 402.244 353.329L402.532 354.081C402.606 354.252 402.548 354.396 402.356 354.513C402.164 354.631 401.87 354.748 401.476 354.865C401.092 354.983 400.702 355.041 400.308 355.041C399.614 355.041 399.129 354.855 398.852 354.481C398.574 354.097 398.436 353.548 398.436 352.833ZM403.57 351.169C403.57 350.103 403.911 349.196 404.594 348.449C405.277 347.692 406.162 347.313 407.25 347.313C408.21 347.313 409.01 347.633 409.65 348.273C410.301 348.913 410.626 349.724 410.626 350.705C410.626 350.876 410.615 351.047 410.594 351.217C410.573 351.431 410.461 351.537 410.258 351.537H405.154C405.165 352.06 405.378 352.529 405.794 352.945C406.221 353.351 406.743 353.553 407.362 353.553C407.981 353.553 408.583 353.345 409.17 352.929C409.351 352.801 409.495 352.812 409.602 352.961L410.034 353.633C410.183 353.815 410.173 353.98 410.002 354.129C409.309 354.737 408.397 355.041 407.266 355.041C406.167 355.041 405.277 354.668 404.594 353.921C403.911 353.175 403.57 352.257 403.57 351.169ZM405.234 350.353H409.042C409.021 349.884 408.839 349.489 408.498 349.169C408.167 348.839 407.741 348.673 407.218 348.673C406.653 348.673 406.194 348.833 405.842 349.153C405.49 349.463 405.287 349.863 405.234 350.353ZM349.686 381.761C349.504 381.601 349.472 381.431 349.59 381.249L350.006 380.593C350.07 380.487 350.155 380.423 350.262 380.401C350.368 380.369 350.464 380.391 350.55 380.465C350.87 380.732 351.115 380.929 351.286 381.057C351.467 381.175 351.718 381.292 352.038 381.409C352.368 381.516 352.726 381.569 353.11 381.569C353.654 381.569 354.091 381.425 354.422 381.137C354.752 380.849 354.918 380.497 354.918 380.081C354.918 379.623 354.72 379.223 354.326 378.881C353.942 378.54 353.334 378.199 352.502 377.857C351.563 377.463 350.843 377.015 350.342 376.513C349.84 376.001 349.59 375.319 349.59 374.465C349.59 374.135 349.654 373.804 349.782 373.473C349.92 373.143 350.118 372.828 350.374 372.529C350.64 372.22 351.008 371.975 351.478 371.793C351.947 371.601 352.486 371.505 353.094 371.505C354.171 371.505 355.158 371.82 356.054 372.449C356.267 372.588 356.299 372.769 356.15 372.993L355.75 373.601C355.6 373.847 355.414 373.9 355.19 373.761C354.902 373.58 354.683 373.447 354.534 373.361C354.384 373.276 354.166 373.191 353.878 373.105C353.6 373.009 353.318 372.961 353.03 372.961C352.422 372.961 351.968 373.111 351.67 373.409C351.371 373.708 351.222 374.039 351.222 374.401C351.222 374.839 351.387 375.212 351.718 375.521C352.048 375.831 352.56 376.129 353.254 376.417C354.363 376.865 355.211 377.356 355.798 377.889C356.395 378.412 356.694 379.116 356.694 380.001C356.694 380.844 356.352 381.559 355.67 382.145C354.998 382.732 354.15 383.025 353.126 383.025C352.539 383.025 351.968 382.929 351.414 382.737C350.87 382.545 350.48 382.369 350.246 382.209C350.022 382.049 349.835 381.9 349.686 381.761ZM358.039 379.169C358.039 378.103 358.38 377.196 359.063 376.449C359.745 375.692 360.631 375.313 361.719 375.313C362.679 375.313 363.479 375.633 364.119 376.273C364.769 376.913 365.095 377.724 365.095 378.705C365.095 378.876 365.084 379.047 365.063 379.217C365.041 379.431 364.929 379.537 364.727 379.537H359.623C359.633 380.06 359.847 380.529 360.263 380.945C360.689 381.351 361.212 381.553 361.831 381.553C362.449 381.553 363.052 381.345 363.639 380.929C363.82 380.801 363.964 380.812 364.071 380.961L364.503 381.633C364.652 381.815 364.641 381.98 364.471 382.129C363.777 382.737 362.865 383.041 361.735 383.041C360.636 383.041 359.745 382.668 359.063 381.921C358.38 381.175 358.039 380.257 358.039 379.169ZM359.703 378.353H363.511C363.489 377.884 363.308 377.489 362.967 377.169C362.636 376.839 362.209 376.673 361.687 376.673C361.121 376.673 360.663 376.833 360.311 377.153C359.959 377.463 359.756 377.863 359.703 378.353ZM366.768 382.513V375.825C366.768 375.74 366.8 375.66 366.864 375.585C366.939 375.511 367.024 375.473 367.12 375.473H367.504C367.675 375.473 367.776 375.548 367.808 375.697L368.032 376.337C368.128 376.231 368.256 376.113 368.416 375.985C368.576 375.847 368.853 375.703 369.248 375.553C369.643 375.393 370.064 375.313 370.512 375.313C372.421 375.313 373.376 376.476 373.376 378.801V382.513C373.376 382.609 373.339 382.695 373.264 382.769C373.189 382.833 373.109 382.865 373.024 382.865H372.128C372.032 382.865 371.947 382.833 371.872 382.769C371.808 382.695 371.776 382.609 371.776 382.513V378.737C371.776 378.129 371.653 377.66 371.408 377.329C371.163 376.999 370.8 376.833 370.32 376.833C369.808 376.833 369.376 376.961 369.024 377.217C368.683 377.463 368.464 377.692 368.368 377.905V382.513C368.368 382.748 368.224 382.865 367.936 382.865H367.12C367.024 382.865 366.939 382.833 366.864 382.769C366.8 382.695 366.768 382.609 366.768 382.513ZM375.086 379.169C375.086 378.081 375.427 377.169 376.11 376.433C376.792 375.687 377.64 375.313 378.654 375.313C378.835 375.313 379.011 375.324 379.182 375.345C379.363 375.367 379.528 375.399 379.678 375.441C379.827 375.473 379.95 375.505 380.046 375.537C380.152 375.569 380.254 375.607 380.35 375.649C380.446 375.681 380.499 375.697 380.51 375.697V372.017C380.51 371.932 380.547 371.852 380.622 371.777C380.696 371.703 380.776 371.665 380.862 371.665H381.774C381.87 371.665 381.95 371.703 382.014 371.777C382.088 371.852 382.126 371.932 382.126 372.017V382.513C382.126 382.609 382.088 382.695 382.014 382.769C381.95 382.833 381.87 382.865 381.774 382.865H381.39C381.219 382.865 381.107 382.759 381.054 382.545L380.894 382.001C380.819 382.076 380.712 382.172 380.574 382.289C380.446 382.407 380.168 382.561 379.742 382.753C379.326 382.945 378.899 383.041 378.462 383.041C377.502 383.041 376.696 382.663 376.046 381.905C375.406 381.148 375.086 380.236 375.086 379.169ZM377.31 377.521C376.894 377.98 376.686 378.529 376.686 379.169C376.686 379.809 376.872 380.364 377.246 380.833C377.63 381.292 378.11 381.521 378.686 381.521C379.176 381.521 379.587 381.388 379.918 381.121C380.248 380.855 380.451 380.625 380.526 380.433V377.265C380.035 376.977 379.47 376.833 378.83 376.833C378.232 376.833 377.726 377.063 377.31 377.521ZM388.029 381.761C387.848 381.601 387.816 381.431 387.933 381.249L388.349 380.593C388.413 380.487 388.499 380.423 388.605 380.401C388.712 380.369 388.808 380.391 388.893 380.465C389.213 380.732 389.459 380.929 389.629 381.057C389.811 381.175 390.061 381.292 390.381 381.409C390.712 381.516 391.069 381.569 391.453 381.569C391.997 381.569 392.435 381.425 392.765 381.137C393.096 380.849 393.261 380.497 393.261 380.081C393.261 379.623 393.064 379.223 392.669 378.881C392.285 378.54 391.677 378.199 390.845 377.857C389.907 377.463 389.187 377.015 388.685 376.513C388.184 376.001 387.933 375.319 387.933 374.465C387.933 374.135 387.997 373.804 388.125 373.473C388.264 373.143 388.461 372.828 388.717 372.529C388.984 372.22 389.352 371.975 389.821 371.793C390.291 371.601 390.829 371.505 391.437 371.505C392.515 371.505 393.501 371.82 394.397 372.449C394.611 372.588 394.643 372.769 394.493 372.993L394.093 373.601C393.944 373.847 393.757 373.9 393.533 373.761C393.245 373.58 393.027 373.447 392.877 373.361C392.728 373.276 392.509 373.191 392.221 373.105C391.944 373.009 391.661 372.961 391.373 372.961C390.765 372.961 390.312 373.111 390.013 373.409C389.715 373.708 389.565 374.039 389.565 374.401C389.565 374.839 389.731 375.212 390.061 375.521C390.392 375.831 390.904 376.129 391.597 376.417C392.707 376.865 393.555 377.356 394.141 377.889C394.739 378.412 395.037 379.116 395.037 380.001C395.037 380.844 394.696 381.559 394.013 382.145C393.341 382.732 392.493 383.025 391.469 383.025C390.883 383.025 390.312 382.929 389.757 382.737C389.213 382.545 388.824 382.369 388.589 382.209C388.365 382.049 388.179 381.9 388.029 381.761ZM396.494 382.497L398.478 371.745C398.521 371.585 398.617 371.505 398.766 371.505H399.022C399.161 371.505 399.252 371.564 399.294 371.681L402.638 379.857H402.702L406.03 371.681C406.073 371.564 406.164 371.505 406.302 371.505H406.558C406.708 371.505 406.804 371.585 406.846 371.745L408.814 382.497C408.868 382.743 408.772 382.865 408.526 382.865H407.486C407.326 382.865 407.225 382.791 407.182 382.641L405.998 375.489H405.95L403.07 382.849C403.028 382.967 402.937 383.025 402.798 383.025H402.51C402.372 383.025 402.281 382.967 402.238 382.849L399.342 375.489H399.278L398.126 382.641C398.116 382.695 398.078 382.748 398.014 382.801C397.961 382.844 397.902 382.865 397.838 382.865H396.798C396.564 382.865 396.462 382.743 396.494 382.497ZM410.561 381.761C410.379 381.601 410.347 381.431 410.465 381.249L410.881 380.593C410.945 380.487 411.03 380.423 411.137 380.401C411.243 380.369 411.339 380.391 411.425 380.465C411.745 380.732 411.99 380.929 412.161 381.057C412.342 381.175 412.593 381.292 412.913 381.409C413.243 381.516 413.601 381.569 413.985 381.569C414.529 381.569 414.966 381.425 415.297 381.137C415.627 380.849 415.793 380.497 415.793 380.081C415.793 379.623 415.595 379.223 415.201 378.881C414.817 378.54 414.209 378.199 413.377 377.857C412.438 377.463 411.718 377.015 411.217 376.513C410.715 376.001 410.465 375.319 410.465 374.465C410.465 374.135 410.529 373.804 410.657 373.473C410.795 373.143 410.993 372.828 411.249 372.529C411.515 372.22 411.883 371.975 412.353 371.793C412.822 371.601 413.361 371.505 413.969 371.505C415.046 371.505 416.033 371.82 416.929 372.449C417.142 372.588 417.174 372.769 417.025 372.993L416.625 373.601C416.475 373.847 416.289 373.9 416.065 373.761C415.777 373.58 415.558 373.447 415.409 373.361C415.259 373.276 415.041 373.191 414.753 373.105C414.475 373.009 414.193 372.961 413.905 372.961C413.297 372.961 412.843 373.111 412.545 373.409C412.246 373.708 412.097 374.039 412.097 374.401C412.097 374.839 412.262 375.212 412.593 375.521C412.923 375.831 413.435 376.129 414.129 376.417C415.238 376.865 416.086 377.356 416.673 377.889C417.27 378.412 417.569 379.116 417.569 380.001C417.569 380.844 417.227 381.559 416.545 382.145C415.873 382.732 415.025 383.025 414.001 383.025C413.414 383.025 412.843 382.929 412.289 382.737C411.745 382.545 411.355 382.369 411.121 382.209C410.897 382.049 410.71 381.9 410.561 381.761Z" fill="black"/>
<path fill-rule="evenodd" clip-rule="evenodd" d="M314.541 322.11C315.486 322.035 315.806 320.81 315.018 320.282L295.85 307.446C295.16 306.984 294.241 307.515 294.296 308.343L295.828 331.362C295.891 332.308 297.112 332.643 297.65 331.862L300.545 327.657C300.962 327.052 301.867 327.088 302.235 327.724L306.838 335.697C307.114 336.175 307.725 336.339 308.204 336.063L312.898 333.352C313.377 333.076 313.54 332.464 313.264 331.986L308.661 324.012C308.293 323.376 308.715 322.574 309.447 322.515L314.541 322.11Z" fill="white"/>
<path d="M309.447 322.515L309.527 323.512L309.447 322.515ZM312.898 333.352L313.398 334.218L312.898 333.352ZM308.204 336.063L307.704 335.197L308.204 336.063ZM302.235 327.724L301.369 328.224L302.235 327.724ZM295.828 331.362L294.83 331.428L295.828 331.362ZM297.65 331.862L296.826 331.295L297.65 331.862ZM315.018 320.282L314.462 321.113L315.018 320.282ZM295.85 307.446L295.294 308.277L295.85 307.446ZM294.296 308.343L293.298 308.41L294.296 308.343ZM295.294 308.277L314.462 321.113L315.575 319.451L296.406 306.615L295.294 308.277ZM296.826 331.295L295.294 308.277L293.298 308.41L294.83 331.428L296.826 331.295ZM299.721 327.09L296.826 331.295L298.473 332.429L301.369 328.224L299.721 327.09ZM307.704 335.197L303.101 327.224L301.369 328.224L305.971 336.197L307.704 335.197ZM312.398 332.486L307.704 335.197L308.704 336.929L313.398 334.218L312.398 332.486ZM307.795 324.512L312.398 332.486L314.13 331.486L309.527 323.512L307.795 324.512ZM314.462 321.113L309.368 321.519L309.527 323.512L314.62 323.107L314.462 321.113ZM309.527 323.512L309.527 323.512L309.368 321.519C307.903 321.635 307.06 323.239 307.795 324.512L309.527 323.512ZM313.398 334.218C314.355 333.666 314.683 332.443 314.13 331.486L312.398 332.486L312.398 332.486L313.398 334.218ZM305.971 336.197C306.524 337.153 307.747 337.481 308.704 336.929L307.704 335.197L305.971 336.197ZM301.369 328.224L303.101 327.224C302.366 325.952 300.555 325.88 299.721 327.09L301.369 328.224ZM294.83 331.428C294.956 333.32 297.398 333.991 298.473 332.429L296.826 331.295L296.826 331.295L294.83 331.428ZM314.462 321.113L314.62 323.107C316.51 322.957 317.15 320.506 315.575 319.451L314.462 321.113ZM296.406 306.615C295.027 305.691 293.188 306.753 293.298 308.41L295.294 308.277L295.294 308.277L296.406 306.615Z" fill="#651B59"/>
<defs>
<linearGradient id="paint0_linear_77_2055" x1="195.814" y1="178.74" x2="173.406" y2="271.573" gradientUnits="userSpaceOnUse">
<stop stop-color="#651B59"/>
<stop offset="1" stop-color="#651B59" stop-opacity="0"/>
</linearGradient>
<linearGradient id="paint1_linear_77_2055" x1="156.809" y1="282.732" x2="172.027" y2="187.075" gradientUnits="userSpaceOnUse">
<stop stop-color="#651B59"/>
<stop offset="1" stop-color="#651B59" stop-opacity="0"/>
</linearGradient>
</defs>
</svg>
